<svg preserveAspectRatio="xMidYMid meet" data-bbox="0.963 1.26 172.076 73.915" xmlns="http://www.w3.org/2000/svg" viewBox="0.963 1.26 172.076 73.915" height="76" width="174" data-type="color" role="presentation" aria-hidden="true" aria-label="">
    <g>
        <path fill="#E68E86" d="M10.216 1.26H.963v72.685h9.253V1.26Z" data-color="1"></path>
        <path fill="#E68E86" d="M2.295 72.606V2.6h6.589v70.006H2.295Z" data-color="1"></path>
        <path fill="#E68E86" d="M37.683 75.175c-5.545 0-23.638-1.781-23.638-24.706v-30.95h9.253v30.193c0 11.321 4.705 16.825 14.385 16.825 9.024 0 14.855-6.79 14.855-17.297V19.519h9.253v54.427h-8.877v-5.198c-3.495 4.129-8.846 6.427-15.231 6.427Z" data-color="1"></path>
        <path fill="#E68E86" d="M54.248 72.606v-8.041h-.188c-2.918 5.96-8.941 9.27-16.376 9.27-11.012 0-22.306-5.865-22.306-23.366v-29.61h6.588v28.853c0 11.731 4.988 18.164 15.718 18.164 8.847 0 16.187-6.244 16.187-18.637V20.86h6.588v51.747h-6.21Z" data-color="1"></path>
        <path fill="#E68E86" d="M104.774 73.945V43.751c0-10.277-5.758-16.919-14.667-16.919-8.91 0-14.761 6.61-14.761 16.446v30.666h-9.253V19.518h9.253v4.451c3.655-3.664 8.912-5.776 14.667-5.776 14.588 0 24.015 10.032 24.015 25.558v30.194h-9.254Z" data-color="1"></path>
        <path fill="#E68E86" d="M106.107 72.606V43.752c0-11.637-6.964-18.26-16-18.26-9.976 0-16.094 7.664-16.094 17.786v29.328h-6.588V20.858h6.588v6.622h.189c3.293-5.014 9.13-7.947 15.811-7.947 14.212 0 22.682 9.839 22.682 24.218v28.855h-6.588Z" data-color="1"></path>
        <path fill="#E68E86" d="M144.884 75.174c-16.264 0-29.003-12.555-29.003-28.585s12.739-28.396 29.003-28.396c7.627 0 14.328 2.882 18.902 8.018v-6.693h9.253v54.427h-9.253v-6.787c-4.644 5.074-11.47 8.017-18.902 8.017Zm-.095-48.342c-11.205 0-19.655 8.616-19.655 20.041s8.49 19.663 19.75 19.663c10.63 0 19.279-8.864 19.279-19.757 0-10.894-8.691-19.947-19.373-19.947h-.001Z" data-color="1"></path>
        <path fill="#E68E86" d="M165.119 72.606v-9.083h-.189c-4.235 6.433-11.67 10.312-20.046 10.312-15.435 0-27.67-11.73-27.67-27.246 0-15.515 12.611-27.056 27.67-27.056 8.564 0 15.905 3.879 20.046 10.406h.189v-9.082h6.588v51.748h-6.588Zm.376-25.827c0-11.542-9.035-21.286-20.706-21.286-11.67 0-20.988 9.082-20.988 21.38 0 12.298 8.941 21.002 21.083 21.002 11.482 0 20.611-9.46 20.611-21.096Z" data-color="1"></path>
    </g>
</svg>